<mxfile host="app.diagrams.net" modified="2023-07-01T23:19:21.364Z" agent="Mozilla/5.0 (Windows NT 10.0; Win64; x64) AppleWebKit/537.36 (KHTML, like Gecko) Chrome/114.0.0.0 Safari/537.36" etag="3P5DbpfkUWrpCD3AA_bM" version="21.5.2">
  <diagram name="Page-1" id="ZpWkp97cVVQftHfpWv77">
    <mxGraphModel dx="1434" dy="792" grid="1" gridSize="10" guides="1" tooltips="1" connect="1" arrows="1" fold="1" page="1" pageScale="1" pageWidth="850" pageHeight="1100" math="1" shadow="0">
      <root>
        <mxCell id="0" />
        <mxCell id="1" parent="0" />
        <mxCell id="tt38cT8SO8tVv-yL0Pu6-14" style="edgeStyle=orthogonalEdgeStyle;rounded=0;orthogonalLoop=1;jettySize=auto;html=1;exitX=1;exitY=0.5;exitDx=0;exitDy=0;fontFamily=Lucida Console;" parent="1" source="tt38cT8SO8tVv-yL0Pu6-1" target="tt38cT8SO8tVv-yL0Pu6-4" edge="1">
          <mxGeometry relative="1" as="geometry" />
        </mxCell>
        <mxCell id="tt38cT8SO8tVv-yL0Pu6-1" value="&lt;font face=&quot;Lucida Console&quot;&gt;Multi-Head Relational Layer&lt;br&gt;&lt;/font&gt;" style="rounded=1;whiteSpace=wrap;html=1;" parent="1" vertex="1">
          <mxGeometry x="340" y="180" width="130" height="60" as="geometry" />
        </mxCell>
        <mxCell id="tt38cT8SO8tVv-yL0Pu6-3" style="edgeStyle=orthogonalEdgeStyle;rounded=0;orthogonalLoop=1;jettySize=auto;html=1;entryX=0;entryY=0.5;entryDx=0;entryDy=0;fontFamily=Lucida Console;" parent="1" source="tt38cT8SO8tVv-yL0Pu6-2" target="tt38cT8SO8tVv-yL0Pu6-1" edge="1">
          <mxGeometry relative="1" as="geometry" />
        </mxCell>
        <mxCell id="tt38cT8SO8tVv-yL0Pu6-2" value="\((z_1^{(1)}, ..., z_{n_1}^{(1)})\)" style="text;html=1;strokeColor=none;fillColor=none;align=right;verticalAlign=middle;whiteSpace=wrap;rounded=0;fontFamily=Lucida Console;" parent="1" vertex="1">
          <mxGeometry x="170" y="187.5" width="120" height="45" as="geometry" />
        </mxCell>
        <mxCell id="tt38cT8SO8tVv-yL0Pu6-4" value="\(R^{(1)} \in \mathbb{R}^{n_1 \times n_1 \times r_1}\)" style="text;html=1;strokeColor=none;fillColor=none;align=left;verticalAlign=middle;whiteSpace=wrap;rounded=0;fontFamily=Lucida Console;" parent="1" vertex="1">
          <mxGeometry x="515" y="187.5" width="115" height="45" as="geometry" />
        </mxCell>
        <mxCell id="tt38cT8SO8tVv-yL0Pu6-9" style="edgeStyle=orthogonalEdgeStyle;rounded=0;orthogonalLoop=1;jettySize=auto;html=1;exitX=1;exitY=0.5;exitDx=0;exitDy=0;entryX=0;entryY=0.5;entryDx=0;entryDy=0;fontFamily=Lucida Console;" parent="1" source="tt38cT8SO8tVv-yL0Pu6-10" target="tt38cT8SO8tVv-yL0Pu6-13" edge="1">
          <mxGeometry relative="1" as="geometry" />
        </mxCell>
        <mxCell id="tt38cT8SO8tVv-yL0Pu6-10" value="&lt;font face=&quot;Lucida Console&quot;&gt;Initial Embedder&lt;br&gt;\(z_i \leftarrow \psi(x_i)\)&lt;br&gt;&lt;/font&gt;" style="rounded=1;whiteSpace=wrap;html=1;" parent="1" vertex="1">
          <mxGeometry x="340" y="100" width="130" height="60" as="geometry" />
        </mxCell>
        <mxCell id="tt38cT8SO8tVv-yL0Pu6-11" style="edgeStyle=orthogonalEdgeStyle;rounded=0;orthogonalLoop=1;jettySize=auto;html=1;entryX=0;entryY=0.5;entryDx=0;entryDy=0;fontFamily=Lucida Console;" parent="1" source="tt38cT8SO8tVv-yL0Pu6-12" target="tt38cT8SO8tVv-yL0Pu6-10" edge="1">
          <mxGeometry relative="1" as="geometry" />
        </mxCell>
        <mxCell id="tt38cT8SO8tVv-yL0Pu6-12" value="\((x_1, ..., x_{n_1}) \in \mathbb{X}^{n_1}\)" style="text;html=1;strokeColor=none;fillColor=none;align=right;verticalAlign=middle;whiteSpace=wrap;rounded=0;fontFamily=Lucida Console;" parent="1" vertex="1">
          <mxGeometry x="160" y="107.5" width="130" height="45" as="geometry" />
        </mxCell>
        <mxCell id="tt38cT8SO8tVv-yL0Pu6-13" value="\((z_1^{(1)}, ..., z_n^{(1)}) \in (\mathbb{R}^{d_1})^{n_1} \)" style="text;html=1;strokeColor=none;fillColor=none;align=left;verticalAlign=middle;whiteSpace=wrap;rounded=0;fontFamily=Lucida Console;" parent="1" vertex="1">
          <mxGeometry x="515" y="107.5" width="155" height="45" as="geometry" />
        </mxCell>
        <mxCell id="tt38cT8SO8tVv-yL0Pu6-15" style="edgeStyle=orthogonalEdgeStyle;rounded=0;orthogonalLoop=1;jettySize=auto;html=1;exitX=1;exitY=0.5;exitDx=0;exitDy=0;fontFamily=Lucida Console;" parent="1" source="tt38cT8SO8tVv-yL0Pu6-16" target="tt38cT8SO8tVv-yL0Pu6-19" edge="1">
          <mxGeometry relative="1" as="geometry" />
        </mxCell>
        <mxCell id="tt38cT8SO8tVv-yL0Pu6-16" value="&lt;font face=&quot;Lucida Console&quot;&gt;Relational Convolution Layer&lt;br&gt;\((R \ast \boldsymbol{f})(G)\)&lt;br&gt;&lt;/font&gt;" style="rounded=1;whiteSpace=wrap;html=1;" parent="1" vertex="1">
          <mxGeometry x="340" y="260" width="130" height="60" as="geometry" />
        </mxCell>
        <mxCell id="tt38cT8SO8tVv-yL0Pu6-17" style="edgeStyle=orthogonalEdgeStyle;rounded=0;orthogonalLoop=1;jettySize=auto;html=1;entryX=0;entryY=0.5;entryDx=0;entryDy=0;fontFamily=Lucida Console;" parent="1" source="tt38cT8SO8tVv-yL0Pu6-18" target="tt38cT8SO8tVv-yL0Pu6-16" edge="1">
          <mxGeometry relative="1" as="geometry" />
        </mxCell>
        <mxCell id="tt38cT8SO8tVv-yL0Pu6-18" value="\(R^{(1)}\)" style="text;html=1;strokeColor=none;fillColor=none;align=right;verticalAlign=middle;whiteSpace=wrap;rounded=0;fontFamily=Lucida Console;" parent="1" vertex="1">
          <mxGeometry x="170" y="267.5" width="120" height="45" as="geometry" />
        </mxCell>
        <mxCell id="tt38cT8SO8tVv-yL0Pu6-19" value="\( (z_1^{(2)}, ..., z_{n_2}^{(2)}) \in (\mathbb{R}^{d_2})^{n_2}\)" style="text;html=1;strokeColor=none;fillColor=none;align=left;verticalAlign=middle;whiteSpace=wrap;rounded=0;fontFamily=Lucida Console;" parent="1" vertex="1">
          <mxGeometry x="515" y="267.5" width="155" height="45" as="geometry" />
        </mxCell>
        <mxCell id="tt38cT8SO8tVv-yL0Pu6-22" style="edgeStyle=orthogonalEdgeStyle;rounded=0;orthogonalLoop=1;jettySize=auto;html=1;exitX=1;exitY=0.5;exitDx=0;exitDy=0;fontFamily=Lucida Console;" parent="1" source="tt38cT8SO8tVv-yL0Pu6-23" target="tt38cT8SO8tVv-yL0Pu6-26" edge="1">
          <mxGeometry relative="1" as="geometry" />
        </mxCell>
        <mxCell id="tt38cT8SO8tVv-yL0Pu6-23" value="&lt;font face=&quot;Lucida Console&quot;&gt;Multi-Head Relational Layer&lt;br&gt;&lt;/font&gt;" style="rounded=1;whiteSpace=wrap;html=1;" parent="1" vertex="1">
          <mxGeometry x="340" y="370" width="130" height="60" as="geometry" />
        </mxCell>
        <mxCell id="tt38cT8SO8tVv-yL0Pu6-24" style="edgeStyle=orthogonalEdgeStyle;rounded=0;orthogonalLoop=1;jettySize=auto;html=1;entryX=0;entryY=0.5;entryDx=0;entryDy=0;fontFamily=Lucida Console;" parent="1" source="tt38cT8SO8tVv-yL0Pu6-25" target="tt38cT8SO8tVv-yL0Pu6-23" edge="1">
          <mxGeometry relative="1" as="geometry" />
        </mxCell>
        <mxCell id="tt38cT8SO8tVv-yL0Pu6-25" value="\((z_1^{(l)}, ..., z_{n_l}^{(l)})\)" style="text;html=1;strokeColor=none;fillColor=none;align=right;verticalAlign=middle;whiteSpace=wrap;rounded=0;fontFamily=Lucida Console;" parent="1" vertex="1">
          <mxGeometry x="200" y="377.5" width="90" height="45" as="geometry" />
        </mxCell>
        <mxCell id="tt38cT8SO8tVv-yL0Pu6-26" value="\(R^{(l)} \in \mathbb{R}^{n \times n \times r_l}\)" style="text;html=1;strokeColor=none;fillColor=none;align=left;verticalAlign=middle;whiteSpace=wrap;rounded=0;fontFamily=Lucida Console;" parent="1" vertex="1">
          <mxGeometry x="515" y="377.5" width="105" height="45" as="geometry" />
        </mxCell>
        <mxCell id="tt38cT8SO8tVv-yL0Pu6-27" style="edgeStyle=orthogonalEdgeStyle;rounded=0;orthogonalLoop=1;jettySize=auto;html=1;exitX=1;exitY=0.5;exitDx=0;exitDy=0;fontFamily=Lucida Console;" parent="1" source="tt38cT8SO8tVv-yL0Pu6-28" target="tt38cT8SO8tVv-yL0Pu6-31" edge="1">
          <mxGeometry relative="1" as="geometry" />
        </mxCell>
        <mxCell id="tt38cT8SO8tVv-yL0Pu6-28" value="Relational Convolution Layer&lt;br style=&quot;&quot;&gt;&lt;span style=&quot;&quot;&gt;\((R \ast \boldsymbol{f})(G)\)&lt;/span&gt;&lt;font&gt;&lt;br&gt;&lt;/font&gt;" style="rounded=1;whiteSpace=wrap;html=1;fontFamily=Lucida Console;" parent="1" vertex="1">
          <mxGeometry x="340" y="450" width="130" height="60" as="geometry" />
        </mxCell>
        <mxCell id="tt38cT8SO8tVv-yL0Pu6-29" style="edgeStyle=orthogonalEdgeStyle;rounded=0;orthogonalLoop=1;jettySize=auto;html=1;entryX=0;entryY=0.5;entryDx=0;entryDy=0;fontFamily=Lucida Console;" parent="1" source="tt38cT8SO8tVv-yL0Pu6-30" target="tt38cT8SO8tVv-yL0Pu6-28" edge="1">
          <mxGeometry relative="1" as="geometry" />
        </mxCell>
        <mxCell id="tt38cT8SO8tVv-yL0Pu6-30" value="\(R^{(l)}\)" style="text;html=1;strokeColor=none;fillColor=none;align=right;verticalAlign=middle;whiteSpace=wrap;rounded=0;fontFamily=Lucida Console;" parent="1" vertex="1">
          <mxGeometry x="250" y="457.5" width="40" height="45" as="geometry" />
        </mxCell>
        <mxCell id="tt38cT8SO8tVv-yL0Pu6-31" value="\( (z_1^{(l+1)}, ..., z_{n_{l+1}}^{(l+1)}) \in (\mathbb{R}^{d_{l+1}})^{n_{l+1}}\)" style="text;html=1;strokeColor=none;fillColor=none;align=left;verticalAlign=middle;whiteSpace=wrap;rounded=0;fontFamily=Lucida Console;" parent="1" vertex="1">
          <mxGeometry x="515" y="457.5" width="195" height="45" as="geometry" />
        </mxCell>
        <mxCell id="tt38cT8SO8tVv-yL0Pu6-32" value="" style="endArrow=none;dashed=1;html=1;dashPattern=1 3;strokeWidth=2;rounded=0;fontFamily=Lucida Console;fontSize=11;exitX=0.5;exitY=0;exitDx=0;exitDy=0;entryX=0.5;entryY=1;entryDx=0;entryDy=0;" parent="1" source="tt38cT8SO8tVv-yL0Pu6-23" target="tt38cT8SO8tVv-yL0Pu6-16" edge="1">
          <mxGeometry width="50" height="50" relative="1" as="geometry">
            <mxPoint x="400" y="490" as="sourcePoint" />
            <mxPoint x="450" y="440" as="targetPoint" />
          </mxGeometry>
        </mxCell>
      </root>
    </mxGraphModel>
  </diagram>
</mxfile>
